<mxfile host="Electron" agent="Mozilla/5.0 (Windows NT 10.0; Win64; x64) AppleWebKit/537.36 (KHTML, like Gecko) draw.io/24.7.17 Chrome/128.0.6613.36 Electron/32.0.1 Safari/537.36" version="24.7.17">
  <diagram name="Page-1" id="cJ3Dhrhqs_HSBw1EuCDN">
    <mxGraphModel dx="1727" dy="2757" grid="1" gridSize="10" guides="1" tooltips="1" connect="1" arrows="1" fold="1" page="1" pageScale="1" pageWidth="850" pageHeight="1100" math="0" shadow="0">
      <root>
        <mxCell id="0" />
        <mxCell id="1" parent="0" />
        <mxCell id="677-rSFbDkZ7p7UJ6ZDB-35" value="&lt;font style=&quot;font-size: 30px;&quot;&gt;&lt;i&gt;Hệ thống quản lý tàu thuyền và xe cộ [Usecase Diagram]&lt;/i&gt;&lt;/font&gt;" style="text;html=1;align=center;verticalAlign=middle;whiteSpace=wrap;rounded=0;" parent="1" vertex="1">
          <mxGeometry x="-250" y="40" width="515" height="150" as="geometry" />
        </mxCell>
        <mxCell id="677-rSFbDkZ7p7UJ6ZDB-80" value="" style="rounded=1;whiteSpace=wrap;html=1;arcSize=5;strokeWidth=1;dashed=1;dashPattern=1 4;fillColor=none;" parent="1" vertex="1">
          <mxGeometry x="-680" y="40" width="1360" height="1000" as="geometry" />
        </mxCell>
        <mxCell id="677-rSFbDkZ7p7UJ6ZDB-11" style="edgeStyle=orthogonalEdgeStyle;rounded=0;orthogonalLoop=1;jettySize=auto;html=1;exitX=0.5;exitY=0;exitDx=0;exitDy=0;exitPerimeter=0;entryX=0;entryY=0.5;entryDx=0;entryDy=0;endArrow=none;endFill=0;" parent="1" source="677-rSFbDkZ7p7UJ6ZDB-1" target="677-rSFbDkZ7p7UJ6ZDB-8" edge="1">
          <mxGeometry relative="1" as="geometry" />
        </mxCell>
        <mxCell id="677-rSFbDkZ7p7UJ6ZDB-12" style="edgeStyle=orthogonalEdgeStyle;rounded=0;orthogonalLoop=1;jettySize=auto;html=1;exitX=0.5;exitY=0;exitDx=0;exitDy=0;exitPerimeter=0;entryX=0;entryY=0.5;entryDx=0;entryDy=0;endArrow=none;endFill=0;" parent="1" source="677-rSFbDkZ7p7UJ6ZDB-1" target="677-rSFbDkZ7p7UJ6ZDB-9" edge="1">
          <mxGeometry relative="1" as="geometry" />
        </mxCell>
        <mxCell id="677-rSFbDkZ7p7UJ6ZDB-17" style="edgeStyle=orthogonalEdgeStyle;rounded=0;orthogonalLoop=1;jettySize=auto;html=1;exitX=1;exitY=0.3333333333333333;exitDx=0;exitDy=0;exitPerimeter=0;entryX=0;entryY=0.5;entryDx=0;entryDy=0;endArrow=none;endFill=0;" parent="1" source="677-rSFbDkZ7p7UJ6ZDB-1" target="677-rSFbDkZ7p7UJ6ZDB-16" edge="1">
          <mxGeometry relative="1" as="geometry" />
        </mxCell>
        <mxCell id="677-rSFbDkZ7p7UJ6ZDB-43" style="edgeStyle=orthogonalEdgeStyle;rounded=0;orthogonalLoop=1;jettySize=auto;html=1;exitX=1;exitY=0.3333333333333333;exitDx=0;exitDy=0;exitPerimeter=0;entryX=0;entryY=0.5;entryDx=0;entryDy=0;endArrow=none;endFill=0;" parent="1" source="677-rSFbDkZ7p7UJ6ZDB-1" target="677-rSFbDkZ7p7UJ6ZDB-19" edge="1">
          <mxGeometry relative="1" as="geometry" />
        </mxCell>
        <mxCell id="677-rSFbDkZ7p7UJ6ZDB-44" style="edgeStyle=orthogonalEdgeStyle;rounded=0;orthogonalLoop=1;jettySize=auto;html=1;exitX=1;exitY=0.3333333333333333;exitDx=0;exitDy=0;exitPerimeter=0;endArrow=none;endFill=0;" parent="1" source="677-rSFbDkZ7p7UJ6ZDB-1" target="677-rSFbDkZ7p7UJ6ZDB-38" edge="1">
          <mxGeometry relative="1" as="geometry" />
        </mxCell>
        <mxCell id="677-rSFbDkZ7p7UJ6ZDB-45" style="edgeStyle=orthogonalEdgeStyle;rounded=0;orthogonalLoop=1;jettySize=auto;html=1;exitX=1;exitY=0.3333333333333333;exitDx=0;exitDy=0;exitPerimeter=0;entryX=0;entryY=0.5;entryDx=0;entryDy=0;endArrow=none;endFill=0;" parent="1" source="677-rSFbDkZ7p7UJ6ZDB-1" target="677-rSFbDkZ7p7UJ6ZDB-39" edge="1">
          <mxGeometry relative="1" as="geometry" />
        </mxCell>
        <mxCell id="677-rSFbDkZ7p7UJ6ZDB-1" value="User/Customer" style="shape=umlActor;verticalLabelPosition=bottom;verticalAlign=top;html=1;outlineConnect=0;" parent="1" vertex="1">
          <mxGeometry x="-750" y="540" width="30" height="60" as="geometry" />
        </mxCell>
        <mxCell id="677-rSFbDkZ7p7UJ6ZDB-27" style="edgeStyle=orthogonalEdgeStyle;rounded=0;orthogonalLoop=1;jettySize=auto;html=1;exitX=0;exitY=0.3333333333333333;exitDx=0;exitDy=0;exitPerimeter=0;entryX=1;entryY=0.5;entryDx=0;entryDy=0;endArrow=none;endFill=0;" parent="1" source="677-rSFbDkZ7p7UJ6ZDB-2" target="677-rSFbDkZ7p7UJ6ZDB-26" edge="1">
          <mxGeometry relative="1" as="geometry" />
        </mxCell>
        <mxCell id="677-rSFbDkZ7p7UJ6ZDB-29" style="edgeStyle=orthogonalEdgeStyle;rounded=0;orthogonalLoop=1;jettySize=auto;html=1;exitX=0;exitY=0.3333333333333333;exitDx=0;exitDy=0;exitPerimeter=0;entryX=1;entryY=0.5;entryDx=0;entryDy=0;endArrow=none;endFill=0;" parent="1" source="677-rSFbDkZ7p7UJ6ZDB-2" target="677-rSFbDkZ7p7UJ6ZDB-28" edge="1">
          <mxGeometry relative="1" as="geometry" />
        </mxCell>
        <mxCell id="677-rSFbDkZ7p7UJ6ZDB-37" style="edgeStyle=orthogonalEdgeStyle;rounded=0;orthogonalLoop=1;jettySize=auto;html=1;exitX=0;exitY=0.3333333333333333;exitDx=0;exitDy=0;exitPerimeter=0;entryX=1;entryY=0.5;entryDx=0;entryDy=0;endArrow=none;endFill=0;" parent="1" source="677-rSFbDkZ7p7UJ6ZDB-2" target="677-rSFbDkZ7p7UJ6ZDB-36" edge="1">
          <mxGeometry relative="1" as="geometry" />
        </mxCell>
        <mxCell id="677-rSFbDkZ7p7UJ6ZDB-2" value="Manager" style="shape=umlActor;verticalLabelPosition=bottom;verticalAlign=top;html=1;outlineConnect=0;" parent="1" vertex="1">
          <mxGeometry x="770" y="720" width="30" height="60" as="geometry" />
        </mxCell>
        <mxCell id="677-rSFbDkZ7p7UJ6ZDB-73" value="&amp;lt;include&amp;gt;" style="edgeStyle=orthogonalEdgeStyle;rounded=0;orthogonalLoop=1;jettySize=auto;html=1;exitX=1;exitY=0.5;exitDx=0;exitDy=0;entryX=0.5;entryY=0;entryDx=0;entryDy=0;dashed=1;" parent="1" source="677-rSFbDkZ7p7UJ6ZDB-8" target="677-rSFbDkZ7p7UJ6ZDB-61" edge="1">
          <mxGeometry x="-0.4046" relative="1" as="geometry">
            <mxPoint as="offset" />
          </mxGeometry>
        </mxCell>
        <mxCell id="677-rSFbDkZ7p7UJ6ZDB-8" value="Đăng ký tài khoản user." style="ellipse;whiteSpace=wrap;html=1;" parent="1" vertex="1">
          <mxGeometry x="-500" y="140" width="120" height="80" as="geometry" />
        </mxCell>
        <mxCell id="677-rSFbDkZ7p7UJ6ZDB-10" value="&amp;lt;extend&amp;gt;" style="edgeStyle=orthogonalEdgeStyle;rounded=0;orthogonalLoop=1;jettySize=auto;html=1;exitX=0.5;exitY=0;exitDx=0;exitDy=0;dashed=1;dashPattern=1 4;" parent="1" source="677-rSFbDkZ7p7UJ6ZDB-9" target="677-rSFbDkZ7p7UJ6ZDB-8" edge="1">
          <mxGeometry x="-0.2727" relative="1" as="geometry">
            <mxPoint as="offset" />
          </mxGeometry>
        </mxCell>
        <mxCell id="677-rSFbDkZ7p7UJ6ZDB-9" value="Đăng nhập." style="ellipse;whiteSpace=wrap;html=1;" parent="1" vertex="1">
          <mxGeometry x="-500" y="270" width="120" height="80" as="geometry" />
        </mxCell>
        <mxCell id="677-rSFbDkZ7p7UJ6ZDB-14" value="" style="edgeStyle=orthogonalEdgeStyle;rounded=0;orthogonalLoop=1;jettySize=auto;html=1;endArrow=blockThin;endFill=1;exitX=1;exitY=0.3333333333333333;exitDx=0;exitDy=0;exitPerimeter=0;entryX=0;entryY=1;entryDx=0;entryDy=0;entryPerimeter=0;" parent="1" source="677-rSFbDkZ7p7UJ6ZDB-13" target="677-rSFbDkZ7p7UJ6ZDB-1" edge="1">
          <mxGeometry relative="1" as="geometry" />
        </mxCell>
        <mxCell id="677-rSFbDkZ7p7UJ6ZDB-13" value="Tài xế" style="shape=umlActor;verticalLabelPosition=bottom;verticalAlign=top;html=1;outlineConnect=0;" parent="1" vertex="1">
          <mxGeometry x="-820" y="700" width="30" height="60" as="geometry" />
        </mxCell>
        <mxCell id="677-rSFbDkZ7p7UJ6ZDB-67" value="&amp;lt;extend&amp;gt;" style="edgeStyle=orthogonalEdgeStyle;rounded=0;orthogonalLoop=1;jettySize=auto;html=1;exitX=1;exitY=0.5;exitDx=0;exitDy=0;entryX=0.5;entryY=1;entryDx=0;entryDy=0;dashed=1;dashPattern=1 4;" parent="1" source="677-rSFbDkZ7p7UJ6ZDB-16" target="677-rSFbDkZ7p7UJ6ZDB-9" edge="1">
          <mxGeometry x="-0.2941" relative="1" as="geometry">
            <mxPoint as="offset" />
          </mxGeometry>
        </mxCell>
        <mxCell id="677-rSFbDkZ7p7UJ6ZDB-16" value="Chỉnh sửa thông tin cá nhân." style="ellipse;whiteSpace=wrap;html=1;" parent="1" vertex="1">
          <mxGeometry x="-670" y="370" width="120" height="80" as="geometry" />
        </mxCell>
        <mxCell id="677-rSFbDkZ7p7UJ6ZDB-20" value="&amp;lt;extend&amp;gt;" style="edgeStyle=orthogonalEdgeStyle;rounded=0;orthogonalLoop=1;jettySize=auto;html=1;exitX=1;exitY=0.5;exitDx=0;exitDy=0;dashed=1;dashPattern=1 4;" parent="1" source="677-rSFbDkZ7p7UJ6ZDB-19" target="677-rSFbDkZ7p7UJ6ZDB-9" edge="1">
          <mxGeometry x="-0.5455" relative="1" as="geometry">
            <mxPoint as="offset" />
          </mxGeometry>
        </mxCell>
        <mxCell id="677-rSFbDkZ7p7UJ6ZDB-19" value="Theo dõi các biên bản, yêu cầu của user." style="ellipse;whiteSpace=wrap;html=1;" parent="1" vertex="1">
          <mxGeometry x="-670" y="470" width="120" height="80" as="geometry" />
        </mxCell>
        <mxCell id="677-rSFbDkZ7p7UJ6ZDB-24" style="edgeStyle=orthogonalEdgeStyle;rounded=0;orthogonalLoop=1;jettySize=auto;html=1;exitX=1;exitY=0.3333333333333333;exitDx=0;exitDy=0;exitPerimeter=0;endArrow=blockThin;endFill=1;entryX=1;entryY=1;entryDx=0;entryDy=0;entryPerimeter=0;" parent="1" source="677-rSFbDkZ7p7UJ6ZDB-21" target="677-rSFbDkZ7p7UJ6ZDB-1" edge="1">
          <mxGeometry relative="1" as="geometry">
            <mxPoint x="-720" y="650" as="targetPoint" />
          </mxGeometry>
        </mxCell>
        <mxCell id="677-rSFbDkZ7p7UJ6ZDB-21" value="Chủ sở hữu&lt;div&gt;phương tiện&lt;/div&gt;" style="shape=umlActor;verticalLabelPosition=bottom;verticalAlign=top;html=1;outlineConnect=0;" parent="1" vertex="1">
          <mxGeometry x="-820" y="790" width="30" height="60" as="geometry" />
        </mxCell>
        <mxCell id="677-rSFbDkZ7p7UJ6ZDB-74" value="&amp;lt;extend&amp;gt;" style="edgeStyle=orthogonalEdgeStyle;rounded=0;orthogonalLoop=1;jettySize=auto;html=1;exitX=0;exitY=0.5;exitDx=0;exitDy=0;entryX=1;entryY=0.5;entryDx=0;entryDy=0;dashed=1;dashPattern=1 4;" parent="1" source="677-rSFbDkZ7p7UJ6ZDB-26" target="677-rSFbDkZ7p7UJ6ZDB-9" edge="1">
          <mxGeometry x="-0.95" relative="1" as="geometry">
            <Array as="points">
              <mxPoint x="460" y="600" />
              <mxPoint x="460" y="310" />
            </Array>
            <mxPoint as="offset" />
          </mxGeometry>
        </mxCell>
        <mxCell id="677-rSFbDkZ7p7UJ6ZDB-26" value="Theo dõi danh sách Tài khoản" style="ellipse;whiteSpace=wrap;html=1;" parent="1" vertex="1">
          <mxGeometry x="530" y="560" width="120" height="80" as="geometry" />
        </mxCell>
        <mxCell id="677-rSFbDkZ7p7UJ6ZDB-76" value="&amp;lt;extend&amp;gt;" style="edgeStyle=orthogonalEdgeStyle;rounded=0;orthogonalLoop=1;jettySize=auto;html=1;entryX=1;entryY=0.5;entryDx=0;entryDy=0;dashed=1;dashPattern=1 4;" parent="1" source="677-rSFbDkZ7p7UJ6ZDB-28" target="677-rSFbDkZ7p7UJ6ZDB-9" edge="1">
          <mxGeometry x="-0.9535" relative="1" as="geometry">
            <Array as="points">
              <mxPoint x="460" y="690" />
              <mxPoint x="460" y="310" />
            </Array>
            <mxPoint as="offset" />
          </mxGeometry>
        </mxCell>
        <mxCell id="677-rSFbDkZ7p7UJ6ZDB-28" value="Tra cứu kho dữ liệu: Biên bản và yêu cầu" style="ellipse;whiteSpace=wrap;html=1;" parent="1" vertex="1">
          <mxGeometry x="530" y="650" width="120" height="80" as="geometry" />
        </mxCell>
        <mxCell id="677-rSFbDkZ7p7UJ6ZDB-68" value="&amp;lt;extend&amp;gt;" style="edgeStyle=orthogonalEdgeStyle;rounded=0;orthogonalLoop=1;jettySize=auto;html=1;entryX=1;entryY=0.5;entryDx=0;entryDy=0;dashed=1;dashPattern=1 4;" parent="1" source="677-rSFbDkZ7p7UJ6ZDB-36" target="677-rSFbDkZ7p7UJ6ZDB-61" edge="1">
          <mxGeometry x="0.4118" relative="1" as="geometry">
            <Array as="points">
              <mxPoint x="420" y="780" />
              <mxPoint x="420" y="760" />
            </Array>
            <mxPoint as="offset" />
          </mxGeometry>
        </mxCell>
        <mxCell id="677-rSFbDkZ7p7UJ6ZDB-77" value="&amp;lt;extend&amp;gt;" style="edgeStyle=orthogonalEdgeStyle;rounded=0;orthogonalLoop=1;jettySize=auto;html=1;exitX=0;exitY=0.5;exitDx=0;exitDy=0;entryX=1;entryY=0.5;entryDx=0;entryDy=0;dashed=1;dashPattern=1 4;" parent="1" source="677-rSFbDkZ7p7UJ6ZDB-36" target="677-rSFbDkZ7p7UJ6ZDB-9" edge="1">
          <mxGeometry x="-0.9565" relative="1" as="geometry">
            <Array as="points">
              <mxPoint x="460" y="780" />
              <mxPoint x="460" y="310" />
            </Array>
            <mxPoint as="offset" />
          </mxGeometry>
        </mxCell>
        <mxCell id="677-rSFbDkZ7p7UJ6ZDB-36" value="Tra cứu các thông số vận hành hệ thống." style="ellipse;whiteSpace=wrap;html=1;" parent="1" vertex="1">
          <mxGeometry x="530" y="740" width="120" height="80" as="geometry" />
        </mxCell>
        <mxCell id="677-rSFbDkZ7p7UJ6ZDB-40" style="edgeStyle=orthogonalEdgeStyle;rounded=0;orthogonalLoop=1;jettySize=auto;html=1;exitX=1;exitY=0.5;exitDx=0;exitDy=0;dashed=1;dashPattern=1 4;" parent="1" source="677-rSFbDkZ7p7UJ6ZDB-38" target="677-rSFbDkZ7p7UJ6ZDB-9" edge="1">
          <mxGeometry relative="1" as="geometry" />
        </mxCell>
        <mxCell id="677-rSFbDkZ7p7UJ6ZDB-42" value="&amp;lt;extend&amp;gt;" style="edgeLabel;html=1;align=center;verticalAlign=middle;resizable=0;points=[];" parent="677-rSFbDkZ7p7UJ6ZDB-40" vertex="1" connectable="0">
          <mxGeometry x="-0.6389" y="2" relative="1" as="geometry">
            <mxPoint x="-7" y="2" as="offset" />
          </mxGeometry>
        </mxCell>
        <mxCell id="677-rSFbDkZ7p7UJ6ZDB-57" style="edgeStyle=orthogonalEdgeStyle;rounded=0;orthogonalLoop=1;jettySize=auto;html=1;exitX=1;exitY=1;exitDx=0;exitDy=0;dashed=1;" parent="1" source="677-rSFbDkZ7p7UJ6ZDB-38" target="677-rSFbDkZ7p7UJ6ZDB-54" edge="1">
          <mxGeometry relative="1" as="geometry" />
        </mxCell>
        <mxCell id="677-rSFbDkZ7p7UJ6ZDB-58" value="&amp;lt;include&amp;gt;&lt;span style=&quot;color: rgba(0, 0, 0, 0); font-family: monospace; font-size: 0px; text-align: start; background-color: rgb(27, 29, 30);&quot;&gt;%3CmxGraphModel%3E%3Croot%3E%3CmxCell%20id%3D%220%22%2F%3E%3CmxCell%20id%3D%221%22%20parent%3D%220%22%2F%3E%3CmxCell%20id%3D%222%22%20value%3D%22X%E1%BB%AD%20l%C3%BD%20Y%C3%AAu%20c%E1%BA%A7u%20t%E1%BB%B1%20%C4%91%E1%BB%99ng%22%20style%3D%22ellipse%3BwhiteSpace%3Dwrap%3Bhtml%3D1%3B%22%20vertex%3D%221%22%20parent%3D%221%22%3E%3CmxGeometry%20x%3D%22-210%22%20y%3D%22620%22%20width%3D%22120%22%20height%3D%2280%22%20as%3D%22geometry%22%2F%3E%3C%2FmxCell%3E%3C%2Froot%3E%3C%2FmxGraphModel%3Einclu&lt;/span&gt;" style="edgeLabel;html=1;align=center;verticalAlign=middle;resizable=0;points=[];" parent="677-rSFbDkZ7p7UJ6ZDB-57" vertex="1" connectable="0">
          <mxGeometry x="-0.4851" relative="1" as="geometry">
            <mxPoint x="34" y="2" as="offset" />
          </mxGeometry>
        </mxCell>
        <mxCell id="677-rSFbDkZ7p7UJ6ZDB-38" value="Tạo yêu cầu nhập phương tiện vào cảng" style="ellipse;whiteSpace=wrap;html=1;" parent="1" vertex="1">
          <mxGeometry x="-670" y="570" width="120" height="80" as="geometry" />
        </mxCell>
        <mxCell id="677-rSFbDkZ7p7UJ6ZDB-41" value="&amp;lt;extend&amp;gt;" style="edgeStyle=orthogonalEdgeStyle;rounded=0;orthogonalLoop=1;jettySize=auto;html=1;exitX=1;exitY=0.5;exitDx=0;exitDy=0;dashed=1;dashPattern=1 4;" parent="1" source="677-rSFbDkZ7p7UJ6ZDB-39" target="677-rSFbDkZ7p7UJ6ZDB-9" edge="1">
          <mxGeometry x="-0.7447" relative="1" as="geometry">
            <mxPoint as="offset" />
          </mxGeometry>
        </mxCell>
        <mxCell id="677-rSFbDkZ7p7UJ6ZDB-51" style="edgeStyle=orthogonalEdgeStyle;rounded=0;orthogonalLoop=1;jettySize=auto;html=1;exitX=1;exitY=1;exitDx=0;exitDy=0;entryX=0;entryY=0.5;entryDx=0;entryDy=0;dashed=1;" parent="1" source="677-rSFbDkZ7p7UJ6ZDB-39" target="677-rSFbDkZ7p7UJ6ZDB-69" edge="1">
          <mxGeometry relative="1" as="geometry" />
        </mxCell>
        <mxCell id="677-rSFbDkZ7p7UJ6ZDB-53" value="&amp;lt;include&amp;gt;" style="edgeLabel;html=1;align=center;verticalAlign=middle;resizable=0;points=[];" parent="677-rSFbDkZ7p7UJ6ZDB-51" vertex="1" connectable="0">
          <mxGeometry x="-0.2992" y="-3" relative="1" as="geometry">
            <mxPoint x="-28" y="-1" as="offset" />
          </mxGeometry>
        </mxCell>
        <mxCell id="677-rSFbDkZ7p7UJ6ZDB-39" value="Tạo yêu cầu xuất phương tiện khỏi cảng" style="ellipse;whiteSpace=wrap;html=1;" parent="1" vertex="1">
          <mxGeometry x="-670" y="670" width="120" height="80" as="geometry" />
        </mxCell>
        <mxCell id="677-rSFbDkZ7p7UJ6ZDB-56" value="&amp;lt;extend&amp;gt;" style="edgeStyle=orthogonalEdgeStyle;rounded=0;orthogonalLoop=1;jettySize=auto;html=1;exitX=1;exitY=0.5;exitDx=0;exitDy=0;entryX=0;entryY=0.5;entryDx=0;entryDy=0;dashed=1;dashPattern=1 4;" parent="1" source="677-rSFbDkZ7p7UJ6ZDB-47" target="677-rSFbDkZ7p7UJ6ZDB-55" edge="1">
          <mxGeometry relative="1" as="geometry" />
        </mxCell>
        <mxCell id="i-_TKWqYw8wbNoqxpIG6-4" value="&amp;lt;extend&amp;gt;" style="edgeStyle=orthogonalEdgeStyle;rounded=0;orthogonalLoop=1;jettySize=auto;html=1;exitX=0.5;exitY=1;exitDx=0;exitDy=0;entryX=0.5;entryY=0;entryDx=0;entryDy=0;dashed=1;dashPattern=1 4;" edge="1" parent="1" source="677-rSFbDkZ7p7UJ6ZDB-47" target="i-_TKWqYw8wbNoqxpIG6-3">
          <mxGeometry relative="1" as="geometry">
            <mxPoint as="offset" />
          </mxGeometry>
        </mxCell>
        <mxCell id="677-rSFbDkZ7p7UJ6ZDB-47" value="Xử lý Yêu cầu tự động" style="ellipse;whiteSpace=wrap;html=1;" parent="1" vertex="1">
          <mxGeometry x="-150" y="720" width="120" height="80" as="geometry" />
        </mxCell>
        <mxCell id="677-rSFbDkZ7p7UJ6ZDB-54" value="Yêu cầu kê khai thông tin" style="ellipse;whiteSpace=wrap;html=1;" parent="1" vertex="1">
          <mxGeometry x="-430" y="620" width="120" height="80" as="geometry" />
        </mxCell>
        <mxCell id="677-rSFbDkZ7p7UJ6ZDB-62" value="&amp;lt;include&amp;gt;" style="edgeStyle=orthogonalEdgeStyle;rounded=0;orthogonalLoop=1;jettySize=auto;html=1;exitX=1;exitY=0.5;exitDx=0;exitDy=0;entryX=0;entryY=0.5;entryDx=0;entryDy=0;dashed=1;" parent="1" source="677-rSFbDkZ7p7UJ6ZDB-55" target="677-rSFbDkZ7p7UJ6ZDB-61" edge="1">
          <mxGeometry relative="1" as="geometry" />
        </mxCell>
        <mxCell id="677-rSFbDkZ7p7UJ6ZDB-55" value="Tạo biên bản" style="ellipse;whiteSpace=wrap;html=1;" parent="1" vertex="1">
          <mxGeometry x="60" y="720" width="120" height="80" as="geometry" />
        </mxCell>
        <mxCell id="677-rSFbDkZ7p7UJ6ZDB-61" value="Cập nhật database" style="ellipse;whiteSpace=wrap;html=1;" parent="1" vertex="1">
          <mxGeometry x="260" y="720" width="120" height="80" as="geometry" />
        </mxCell>
        <mxCell id="677-rSFbDkZ7p7UJ6ZDB-66" value="" style="edgeStyle=orthogonalEdgeStyle;rounded=0;orthogonalLoop=1;jettySize=auto;html=1;exitX=0;exitY=0.5;exitDx=0;exitDy=0;dashed=1;dashPattern=1 4;" parent="1" source="677-rSFbDkZ7p7UJ6ZDB-63" target="677-rSFbDkZ7p7UJ6ZDB-65" edge="1">
          <mxGeometry x="0.4667" relative="1" as="geometry">
            <mxPoint as="offset" />
          </mxGeometry>
        </mxCell>
        <mxCell id="677-rSFbDkZ7p7UJ6ZDB-78" value="&amp;lt;extend&amp;gt;" style="edgeStyle=orthogonalEdgeStyle;rounded=0;orthogonalLoop=1;jettySize=auto;html=1;exitX=0;exitY=0.5;exitDx=0;exitDy=0;entryX=1;entryY=0.5;entryDx=0;entryDy=0;dashed=1;dashPattern=1 4;" parent="1" source="677-rSFbDkZ7p7UJ6ZDB-63" target="677-rSFbDkZ7p7UJ6ZDB-9" edge="1">
          <mxGeometry x="-0.9595" relative="1" as="geometry">
            <Array as="points">
              <mxPoint x="460" y="880" />
              <mxPoint x="460" y="310" />
            </Array>
            <mxPoint as="offset" />
          </mxGeometry>
        </mxCell>
        <mxCell id="677-rSFbDkZ7p7UJ6ZDB-63" value="Xem báo cáo hoạt động hằng ngày" style="ellipse;whiteSpace=wrap;html=1;" parent="1" vertex="1">
          <mxGeometry x="530" y="840" width="120" height="80" as="geometry" />
        </mxCell>
        <mxCell id="677-rSFbDkZ7p7UJ6ZDB-64" style="edgeStyle=orthogonalEdgeStyle;rounded=0;orthogonalLoop=1;jettySize=auto;html=1;exitX=1;exitY=0.5;exitDx=0;exitDy=0;entryX=0;entryY=0.3333333333333333;entryDx=0;entryDy=0;entryPerimeter=0;endArrow=none;endFill=0;" parent="1" source="677-rSFbDkZ7p7UJ6ZDB-63" target="677-rSFbDkZ7p7UJ6ZDB-2" edge="1">
          <mxGeometry relative="1" as="geometry" />
        </mxCell>
        <mxCell id="i-_TKWqYw8wbNoqxpIG6-5" value="&amp;lt;include&amp;gt;" style="edgeStyle=orthogonalEdgeStyle;rounded=0;orthogonalLoop=1;jettySize=auto;html=1;entryX=0.5;entryY=1;entryDx=0;entryDy=0;dashed=1;" edge="1" parent="1" source="677-rSFbDkZ7p7UJ6ZDB-65" target="677-rSFbDkZ7p7UJ6ZDB-61">
          <mxGeometry relative="1" as="geometry" />
        </mxCell>
        <mxCell id="677-rSFbDkZ7p7UJ6ZDB-65" value="Tạo báo cáo hoạt động hằng ngày" style="ellipse;whiteSpace=wrap;html=1;" parent="1" vertex="1">
          <mxGeometry x="260" y="840" width="120" height="80" as="geometry" />
        </mxCell>
        <mxCell id="677-rSFbDkZ7p7UJ6ZDB-71" value="&amp;lt;include&amp;gt;" style="edgeStyle=orthogonalEdgeStyle;rounded=0;orthogonalLoop=1;jettySize=auto;html=1;exitX=1;exitY=0.5;exitDx=0;exitDy=0;entryX=0;entryY=0.5;entryDx=0;entryDy=0;dashed=1;" parent="1" source="677-rSFbDkZ7p7UJ6ZDB-69" target="677-rSFbDkZ7p7UJ6ZDB-47" edge="1">
          <mxGeometry relative="1" as="geometry" />
        </mxCell>
        <mxCell id="677-rSFbDkZ7p7UJ6ZDB-69" value="Tạo yêu cầu" style="ellipse;whiteSpace=wrap;html=1;" parent="1" vertex="1">
          <mxGeometry x="-340" y="720" width="120" height="80" as="geometry" />
        </mxCell>
        <mxCell id="677-rSFbDkZ7p7UJ6ZDB-72" value="&amp;lt;include&amp;gt;" style="edgeStyle=orthogonalEdgeStyle;rounded=0;orthogonalLoop=1;jettySize=auto;html=1;exitX=0.5;exitY=1;exitDx=0;exitDy=0;entryX=0;entryY=0.5;entryDx=0;entryDy=0;dashed=1;" parent="1" source="677-rSFbDkZ7p7UJ6ZDB-54" target="677-rSFbDkZ7p7UJ6ZDB-69" edge="1">
          <mxGeometry x="-0.5384" relative="1" as="geometry">
            <mxPoint as="offset" />
          </mxGeometry>
        </mxCell>
        <mxCell id="i-_TKWqYw8wbNoqxpIG6-2" value="&amp;lt;include&amp;gt;" style="endArrow=classic;html=1;rounded=0;exitX=1;exitY=0;exitDx=0;exitDy=0;entryX=0;entryY=0;entryDx=0;entryDy=0;dashed=1;" edge="1" parent="1" source="677-rSFbDkZ7p7UJ6ZDB-69" target="677-rSFbDkZ7p7UJ6ZDB-61">
          <mxGeometry width="50" height="50" relative="1" as="geometry">
            <mxPoint y="720" as="sourcePoint" />
            <mxPoint x="50" y="670" as="targetPoint" />
            <Array as="points">
              <mxPoint x="-210" y="710" />
              <mxPoint x="250" y="710" />
            </Array>
          </mxGeometry>
        </mxCell>
        <mxCell id="i-_TKWqYw8wbNoqxpIG6-3" value="Từ chối yêu cầu" style="ellipse;whiteSpace=wrap;html=1;" vertex="1" parent="1">
          <mxGeometry x="-150" y="840" width="120" height="80" as="geometry" />
        </mxCell>
      </root>
    </mxGraphModel>
  </diagram>
</mxfile>
